<svg width="83" height="83" viewBox="0 0 83 83" fill="none" xmlns="http://www.w3.org/2000/svg">
<path d="M58.7917 69.1667C57.7887 69.1667 56.855 68.9592 56.1633 68.6479C53.7079 67.4375 51.9787 65.6046 50.2496 60.4171C48.4167 55.0221 45.1658 52.4975 41.9842 50.0421C39.2521 47.9325 36.4162 45.7538 33.9608 41.2925C32.1279 38.0417 31.125 34.3413 31.125 31.125C31.125 21.4417 38.7333 13.8333 48.4167 13.8333C58.1 13.8333 65.7083 21.4417 65.7083 31.125H72.625C72.625 17.5338 62.0079 6.91668 48.4167 6.91668C34.8254 6.91668 24.2083 17.5338 24.2083 31.125C24.2083 35.4825 25.5225 40.2896 27.9087 44.6125C31.125 50.3188 34.7562 53.1892 37.765 55.5063C40.5662 57.6504 42.5721 59.2067 43.6787 62.5958C45.7537 68.89 48.4167 72.4175 53.12 74.8729C54.8837 75.6683 56.8204 76.0833 58.7917 76.0833C62.4605 76.0833 65.9791 74.6259 68.5733 72.0317C71.1676 69.4374 72.625 65.9188 72.625 62.25H65.7083C65.7083 64.0844 64.9796 65.8437 63.6825 67.1408C62.3854 68.438 60.6261 69.1667 58.7917 69.1667ZM26.4217 9.13001L21.5108 4.21918C14.6287 11.1013 10.375 20.6117 10.375 31.125C10.375 41.6383 14.6287 51.1488 21.5108 58.0308L26.3871 53.1546C20.75 47.5175 17.2917 39.7708 17.2917 31.125C17.2917 22.4792 20.75 14.7325 26.4217 9.13001ZM39.7708 31.125C39.7708 32.2604 39.9945 33.3847 40.429 34.4336C40.8635 35.4826 41.5003 36.4357 42.3031 37.2385C43.9245 38.8599 46.1236 39.7708 48.4167 39.7708C49.5521 39.7708 50.6763 39.5472 51.7253 39.1127C52.7742 38.6782 53.7274 38.0414 54.5302 37.2385C55.333 36.4357 55.9699 35.4826 56.4044 34.4336C56.8389 33.3847 57.0625 32.2604 57.0625 31.125C57.0625 28.832 56.1516 26.6329 54.5302 25.0115C52.9088 23.3901 50.7097 22.4792 48.4167 22.4792C46.1236 22.4792 43.9245 23.3901 42.3031 25.0115C40.6817 26.6329 39.7708 28.832 39.7708 31.125Z" fill="white"/>
</svg>
