<svg width="83" height="83" viewBox="0 0 83 83" fill="none" xmlns="http://www.w3.org/2000/svg">
<path d="M65.7083 38.0417C65.7083 42.1571 64.5325 45.9958 62.5958 49.385L58.3421 45.1312C59.2758 42.9871 59.8292 40.6008 59.8292 38.0417H65.7083ZM51.875 38.595L31.125 17.9142V17.2917C31.125 14.54 32.2181 11.9011 34.1638 9.95542C36.1095 8.00973 38.7484 6.91666 41.5 6.91666C44.2516 6.91666 46.8905 8.00973 48.8362 9.95542C50.7819 11.9011 51.875 14.54 51.875 17.2917V38.0417V38.595ZM14.7671 10.375L72.625 68.2329L68.2329 72.625L53.7425 58.1346C51.0796 59.7254 48.1054 60.7975 44.9583 61.2817V72.625H38.0417V61.2817C26.6983 59.5871 17.2917 49.8346 17.2917 38.0417H23.1708C23.1708 48.4167 31.955 55.6792 41.5 55.6792C44.3012 55.6792 47.0333 55.0221 49.4888 53.8808L43.7479 48.14L41.5 48.4167C38.7484 48.4167 36.1095 47.3236 34.1638 45.3779C32.2181 43.4322 31.125 40.7933 31.125 38.0417V35.5517L10.375 14.7671L14.7671 10.375Z" fill="white"/>
</svg>
