<svg width="83" height="83" viewBox="0 0 83 83" fill="none" xmlns="http://www.w3.org/2000/svg">
<path d="M55.3333 31.125H44.9583V50.1458C44.9583 52.4388 44.0474 54.638 42.426 56.2594C40.8046 57.8808 38.6055 58.7917 36.3125 58.7917C34.0195 58.7917 31.8204 57.8808 30.199 56.2594C28.5776 54.638 27.6667 52.4388 27.6667 50.1458C27.6667 47.8528 28.5776 45.6537 30.199 44.0323C31.8204 42.4109 34.0195 41.5 36.3125 41.5C38.2837 41.5 40.0475 42.1571 41.5 43.2292V24.2083H55.3333V31.125ZM65.7083 10.375C67.5427 10.375 69.302 11.1037 70.5992 12.4008C71.8963 13.698 72.625 15.4573 72.625 17.2917V65.7083C72.625 67.5427 71.8963 69.302 70.5992 70.5992C69.302 71.8963 67.5427 72.625 65.7083 72.625H17.2917C15.4573 72.625 13.698 71.8963 12.4008 70.5992C11.1037 69.302 10.375 67.5427 10.375 65.7083V17.2917C10.375 15.4573 11.1037 13.698 12.4008 12.4008C13.698 11.1037 15.4573 10.375 17.2917 10.375H65.7083ZM17.2917 17.2917V65.7083H65.7083V17.2917H17.2917Z" fill="white"/>
</svg>
