<svg width="83" height="83" viewBox="0 0 83 83" fill="none" xmlns="http://www.w3.org/2000/svg">
<path d="M51.875 20.75H10.375V27.6667H51.875V20.75ZM51.875 34.5833H10.375V41.5H51.875V34.5833ZM10.375 55.3333H38.0417V48.4167H10.375V55.3333ZM58.7917 20.75V49.0392C57.7196 48.6588 56.5438 48.4167 55.3333 48.4167C52.5817 48.4167 49.9428 49.5097 47.9971 51.4554C46.0514 53.4011 44.9583 56.04 44.9583 58.7917C44.9583 61.5433 46.0514 64.1822 47.9971 66.1279C49.9428 68.0736 52.5817 69.1667 55.3333 69.1667C58.085 69.1667 60.7239 68.0736 62.6696 66.1279C64.6153 64.1822 65.7083 61.5433 65.7083 58.7917V27.6667H76.0833V20.75H58.7917Z" fill="white"/>
</svg>
