<svg width="83" height="83" viewBox="0 0 83 83" fill="none" xmlns="http://www.w3.org/2000/svg">
<path d="M34.5833 57.0625V25.9375L55.3333 41.5M41.5 6.91666C36.9584 6.91666 32.4614 7.81118 28.2655 9.54916C24.0697 11.2871 20.2572 13.8345 17.0459 17.0459C10.5603 23.5315 6.91666 32.3279 6.91666 41.5C6.91666 50.6721 10.5603 59.4685 17.0459 65.9541C20.2572 69.1655 24.0697 71.7129 28.2655 73.4508C32.4614 75.1888 36.9584 76.0833 41.5 76.0833C50.6721 76.0833 59.4685 72.4397 65.9541 65.9541C72.4397 59.4685 76.0833 50.6721 76.0833 41.5C76.0833 36.9584 75.1888 32.4614 73.4508 28.2655C71.7129 24.0697 69.1655 20.2572 65.9541 17.0459C62.7427 13.8345 58.9303 11.2871 54.7345 9.54916C50.5386 7.81118 46.0415 6.91666 41.5 6.91666Z" fill="#3A3558"/>
</svg>
